<?xml version="1.0" standalone="no"?>
<!DOCTYPE svg PUBLIC "-//W3C//DTD SVG 20010904//EN"
  "http://www.w3.org/TR/2001/REC-SVG-20010904/DTD/svg10.dtd">
<svg version="1.0" xmlns="http://www.w3.org/2000/svg"
  width="800.000000pt" height="800.000000pt" viewBox="0 0 800.000000 800.000000"
  preserveAspectRatio="xMidYMid meet">

  <g transform="translate(0.000000,800.000000) scale(0.100000,-0.100000)"
    fill="#000000" stroke="none">
    <path d="M3822 4177 l-3322 -3322 178 -178 177 -177 250 250 250 250 2597 0
c1852 0 2612 3 2650 11 182 38 334 187 383 375 13 51 15 373 15 2659 l0 2600
250 250 250 250 -178 178 -177 177 -3323 -3323z m2678 371 l0 -1592 -357 355
c-383 381 -393 389 -528 424 -75 19 -155 19 -230 0 -128 -33 -155 -53 -403
-299 l-232 -231 -298 298 -297 297 1170 1170 c643 644 1171 1170 1172 1170 2
0 3 -716 3 -1592z m-2376 -1426 c257 -254 333 -324 382 -350 159 -83 330 -83
488 1 47 24 113 83 284 252 l222 220 500 -500 500 -500 0 -372 0 -373 -2322 0
-2323 0 970 970 c533 534 972 970 974 970 3 0 149 -143 325 -318z"/>
    <path d="M1380 6984 c-183 -49 -332 -202 -369 -382 -8 -38 -11 -642 -11 -2077
l0 -2025 250 0 250 0 0 372 0 373 625 625 625 625 170 -170 170 -170 177 178
178 177 -190 190 c-105 105 -211 204 -236 220 -107 70 -260 96 -379 66 -144
-36 -137 -31 -657 -550 l-483 -481 0 1273 0 1272 2000 0 2000 0 0 250 0 250
-2032 -1 c-1749 0 -2041 -2 -2088 -15z"/>
  </g>
</svg>
