<?xml version="1.0" standalone="no"?>
<!DOCTYPE svg PUBLIC "-//W3C//DTD SVG 20010904//EN"
 "http://www.w3.org/TR/2001/REC-SVG-20010904/DTD/svg10.dtd">
<svg version="1.0" xmlns="http://www.w3.org/2000/svg"
 width="2048.000000pt" height="1863.000000pt" viewBox="0 0 2048.000000 1863.000000"
 preserveAspectRatio="xMidYMid meet">

<g transform="translate(0.000000,1863.000000) scale(0.100000,-0.100000)"
fill="#000000" stroke="none">
<path d="M319 18596 c-201 -71 -317 -245 -307 -460 5 -103 -23 -29 338 -886
103 -245 258 -614 345 -820 87 -206 224 -532 305 -725 81 -192 261 -620 400
-950 139 -330 320 -760 402 -955 82 -195 171 -407 198 -470 27 -63 116 -275
198 -470 82 -195 220 -524 307 -730 86 -206 176 -420 200 -475 23 -55 65 -154
93 -220 28 -66 118 -280 200 -475 82 -195 220 -524 307 -730 86 -206 176 -420
200 -475 77 -180 105 -299 105 -440 0 -141 -28 -260 -105 -440 -24 -55 -114
-269 -200 -475 -87 -206 -225 -535 -307 -730 -82 -195 -172 -409 -200 -475
-28 -66 -74 -176 -103 -245 -52 -123 -154 -363 -495 -1175 -95 -225 -185 -439
-200 -475 -15 -36 -104 -247 -198 -470 -715 -1699 -850 -2020 -897 -2130 -29
-69 -123 -294 -210 -500 -87 -206 -242 -575 -345 -820 -103 -245 -221 -524
-261 -620 l-74 -175 0 -116 c0 -113 1 -116 38 -193 84 -169 238 -266 422 -266
93 0 142 17 422 144 566 257 1549 702 1863 843 367 166 642 290 825 373 88 40
327 148 530 240 956 433 1236 560 1435 650 223 101 537 243 1260 570 234 106
488 221 565 255 77 34 334 150 570 258 643 291 1675 759 1970 892 293 132 560
253 940 425 143 65 352 159 465 210 113 51 333 151 490 223 157 71 328 149
380 172 52 23 169 76 260 117 91 42 257 117 370 168 113 51 372 168 575 260
204 92 460 208 570 258 459 207 1274 575 1780 804 110 50 247 112 305 138 58
26 368 167 690 313 322 146 731 331 910 412 179 81 413 186 520 235 513 232
652 295 732 331 48 21 253 113 455 205 202 92 467 211 588 266 304 137 318
145 383 204 65 59 113 140 137 229 19 74 19 132 0 212 -23 97 -54 153 -124
224 -71 71 -64 67 -396 217 -110 50 -299 135 -421 190 -122 56 -383 173 -580
262 -197 89 -406 183 -464 210 -122 55 -359 162 -880 398 -369 167 -1237 560
-1660 752 -118 54 -307 139 -420 190 -113 51 -347 157 -520 235 -173 79 -432
196 -575 260 -391 176 -623 280 -1030 465 -203 92 -462 209 -575 260 -328 148
-630 285 -850 385 -113 51 -281 128 -375 170 -93 43 -429 194 -745 337 -638
289 -864 391 -1240 561 -140 63 -473 214 -740 335 -267 121 -681 309 -920 417
-239 109 -498 226 -575 260 -119 53 -450 203 -1460 660 -449 203 -587 265
-795 360 -124 57 -364 166 -535 243 -170 77 -407 184 -525 237 -209 95 -410
185 -837 379 -115 51 -323 145 -463 209 -439 198 -1537 695 -1865 845 -126 57
-256 113 -288 123 -85 27 -203 25 -288 -5z m1618 -1612 c312 -141 615 -278
673 -304 58 -26 177 -80 265 -120 332 -151 601 -273 950 -430 198 -89 407
-184 465 -210 58 -26 245 -111 415 -188 274 -124 672 -304 1370 -619 116 -53
253 -115 305 -138 52 -23 190 -85 305 -138 116 -52 305 -137 420 -190 116 -52
239 -108 275 -124 123 -57 286 -131 655 -298 389 -176 844 -382 1205 -545 118
-54 280 -127 360 -163 132 -59 655 -296 1215 -549 121 -55 263 -119 315 -143
162 -74 734 -333 1215 -550 253 -114 507 -229 565 -255 58 -26 197 -89 310
-140 204 -92 294 -133 1010 -458 206 -93 467 -211 580 -262 113 -51 252 -114
310 -140 154 -71 431 -196 540 -245 83 -37 511 -230 1140 -515 107 -49 296
-134 420 -190 124 -56 275 -124 335 -152 61 -27 146 -66 190 -86 44 -20 84
-39 90 -44 5 -4 -2997 -8 -6672 -8 l-6681 0 -27 88 c-27 88 -78 212 -415 1012
-103 245 -265 630 -360 855 -95 226 -189 451 -210 500 -113 268 -712 1690
-977 2320 -74 176 -163 388 -198 470 -35 83 -125 296 -200 475 -75 179 -165
393 -200 475 -35 83 -125 296 -200 475 -225 536 -266 631 -300 713 -19 42 -32
77 -30 77 2 0 259 -115 572 -256z m15898 -8142 c-6 -5 -46 -24 -90 -44 -44
-20 -181 -82 -305 -138 -124 -56 -268 -121 -320 -145 -116 -53 -466 -211 -730
-330 -107 -48 -316 -143 -465 -210 -148 -67 -362 -164 -475 -215 -379 -171
-732 -331 -1160 -525 -699 -317 -960 -435 -1060 -480 -52 -23 -189 -85 -305
-138 -115 -52 -376 -170 -580 -262 -389 -175 -811 -367 -1535 -695 -239 -109
-577 -261 -750 -340 -483 -218 -804 -363 -1040 -470 -118 -54 -307 -139 -420
-190 -195 -88 -473 -214 -935 -423 -115 -52 -241 -109 -280 -127 -38 -18 -163
-75 -277 -126 -115 -52 -304 -137 -420 -190 -117 -53 -256 -116 -308 -139 -95
-43 -198 -89 -880 -398 -201 -91 -482 -218 -625 -282 -143 -65 -352 -159 -465
-210 -475 -215 -952 -431 -1055 -477 -60 -27 -153 -69 -205 -93 -163 -75 -650
-296 -750 -340 -52 -23 -306 -137 -563 -254 -258 -116 -470 -211 -472 -211 -2
0 11 35 30 78 18 42 62 147 98 232 77 183 413 982 604 1435 136 323 183 434
358 850 54 127 126 298 160 380 64 154 303 721 562 1335 80 190 181 428 223
530 43 102 157 374 255 605 97 231 267 634 377 895 110 261 228 543 263 625
111 264 133 318 160 408 l27 87 6681 0 c3675 0 6677 -4 6672 -8z"/>
</g>
</svg>
